Coordinates
nRows=112
nColumns=2
inDegrees=yes
endheader
time	ankle_angle_r	
4.0625	 -0.351175	
4.125	 -0.399377	
4.1875	 -0.377031	
4.25	 -0.326893	
4.3125	 -0.335026	
4.375	 -0.361304	
4.4375	 -0.373879	
4.5	 -0.388112	
4.5625	 -0.386737	
4.625	 -0.399188	
4.6875	 -0.409028	
4.75	 -0.388058	
4.8125	 -0.382680	
4.875	 -0.382503	
4.9375	 -0.391425	
5	 -0.424291	
5.0625	 -0.434246	
5.125	 -0.426735	
5.1875	 -0.405335	
5.25	 -0.375547	
5.3125	 -0.378669	
5.375	 -0.386977	
5.4375	 -0.402325	
5.5	 -0.432756	
5.5625	 -0.426002	
5.625	 -0.416481	
5.6875	 -0.416264	
5.75	 -0.371757	
5.8125	 -0.313856	
5.875	 -0.279417	
5.9375	 -0.281691	
6	 -0.324840	
6.0625	 -0.373405	
6.125	 -0.411230	
6.1875	 -0.416456	
6.25	 -0.390607	
6.3125	 -0.382912	
6.375	 -0.389238	
6.4375	 -0.405979	
6.5	 -0.424240	
6.5625	 -0.416841	
6.625	 -0.417620	
6.6875	 -0.411846	
6.75	 -0.389102	
6.8125	 -0.390895	
6.875	 -0.384688	
6.9375	 -0.392187	
7	 -0.428573	
7.0625	 -0.417065	
7.125	 -0.394234	
7.1875	 -0.382631	
7.25	 -0.343804	
7.3125	 -0.325432	
7.375	 -0.318056	
7.4375	 -0.305789	
7.5	 -0.326195	
7.5625	 -0.349297	
7.625	 -0.366912	
7.6875	 -0.366680	
7.75	 -0.327793	
7.8125	 -0.317752	
7.875	 -0.343093	
7.9375	 -0.360833	
8	 -0.378728	
8.0625	 -0.383008	
8.125	 -0.368554	
8.1875	 -0.344418	
8.25	 -0.332985	
8.3125	 -0.361201	
8.375	 -0.381255	
8.4375	 -0.390282	
8.5	 -0.420032	
8.5625	 -0.430485	
8.625	 -0.423009	
8.6875	 -0.408563	
8.75	 -0.385409	
8.8125	 -0.385302	
8.875	 -0.390931	
8.9375	 -0.398594	
9	 -0.421717	
9.0625	 -0.419629	
9.125	 -0.404262	
9.1875	 -0.394926	
9.25	 -0.381674	
9.3125	 -0.386399	
9.375	 -0.389237	
9.4375	 -0.393185	
9.5	 -0.416231	
9.5625	 -0.419418	
9.625	 -0.415409	
9.6875	 -0.397695	
9.75	 -0.354645	
9.8125	 -0.346974	
9.875	 -0.358244	
9.9375	 -0.373868	
10	 -0.408034	
10.0625	 -0.405255	
10.125	 -0.392330	
10.1875	 -0.403148	
10.25	 -0.393106	
10.3125	 -0.380191	
10.375	 -0.379606	
10.4375	 -0.390899	
10.5	 -0.415597	
10.5625	 -0.421314	
10.625	 -0.426550	
10.6875	 -0.424914	
10.75	 -0.391830	
10.8125	 -0.388962	
10.875	 -0.409626	
10.9375	 -0.410443	
11	 -0.427106	
